# xmcd
#
# Track frame offsets:
#	150
#	19005
#	39625
#	68872
#
# Disc length: 1148 seconds
#
# Revision: 1
# Processed by: cddbd v1.5.2PL0 Copyright (c) Steve Scherf et al.
# Submitted via: audiograbber 1.83.01
#
DISCID=2d047a04
DTITLE=Riina - Perhonen [CDM)
DYEAR=1997
DGENRE=Electronic
TTITLE0=Perhonen (Radio Edit)
TTITLE1=Perhonen (Palava Sydän Remix)
TTITLE2=Perhonen (V.I.P. Dub)
TTITLE3=Perhonen (Pepe Deluxé Artistique Rmx)
EXTD=TR.
EXTT0=
EXTT1=
EXTT2=
EXTT3=
PLAYORDER=
